<?xml version="1.0" encoding="UTF-8" standalone="no"?>
<svg
   version="1.1"
   viewBox="0 0 175.297 175.29699"
   id="svg24"
   sodipodi:docname="ifpb-logo-black.svg"
   width="175.297"
   height="175.297"
   inkscape:version="1.3.1 (6036e22fae, 2023-11-19, custom)"
   xmlns:inkscape="http://www.inkscape.org/namespaces/inkscape"
   xmlns:sodipodi="http://sodipodi.sourceforge.net/DTD/sodipodi-0.dtd"
   xmlns="http://www.w3.org/2000/svg"
   xmlns:svg="http://www.w3.org/2000/svg"
   xmlns:rdf="http://www.w3.org/1999/02/22-rdf-syntax-ns#"
   xmlns:cc="http://creativecommons.org/ns#"
   xmlns:dc="http://purl.org/dc/elements/1.1/">
  <defs
     id="defs24" />
  <sodipodi:namedview
     id="namedview24"
     pagecolor="#ffffff"
     bordercolor="#000000"
     borderopacity="0.25"
     inkscape:showpageshadow="2"
     inkscape:pageopacity="0.0"
     inkscape:pagecheckerboard="0"
     inkscape:deskcolor="#d1d1d1"
     inkscape:zoom="1.0429823"
     inkscape:cx="69.512206"
     inkscape:cy="87.729197"
     inkscape:window-width="1366"
     inkscape:window-height="731"
     inkscape:window-x="0"
     inkscape:window-y="0"
     inkscape:window-maximized="1"
     inkscape:current-layer="svg24" />
  <title
     id="title1">Instituto Federal da Paraíba - Marca Vertical 2015</title>
  <g
     id="g25"
     style="fill:#000000"
     transform="translate(-18.782001,-3.0001815)">
    <g
       fill="#2f9e41"
       transform="translate(24)"
       id="g9"
       style="fill:#000000">
      <rect
         x="72"
         y="4"
         width="20"
         height="20"
         rx="2"
         ry="2"
         id="rect1"
         style="fill:#000000" />
      <rect
         x="96"
         y="4"
         width="20"
         height="20"
         rx="2"
         ry="2"
         id="rect2"
         style="fill:#000000" />
      <rect
         x="48"
         y="28"
         width="20"
         height="20"
         rx="2"
         ry="2"
         id="rect3"
         style="fill:#000000" />
      <rect
         x="72"
         y="28"
         width="20"
         height="20"
         rx="2"
         ry="2"
         id="rect4"
         style="fill:#000000" />
      <rect
         x="48"
         y="52"
         width="20"
         height="20"
         rx="2"
         ry="2"
         id="rect5"
         style="fill:#000000" />
      <rect
         x="72"
         y="52"
         width="20"
         height="20"
         rx="2"
         ry="2"
         id="rect6"
         style="fill:#000000" />
      <rect
         x="96"
         y="52"
         width="20"
         height="20"
         rx="2"
         ry="2"
         id="rect7"
         style="fill:#000000" />
      <rect
         x="48"
         y="76"
         width="20"
         height="20"
         rx="2"
         ry="2"
         id="rect8"
         style="fill:#000000" />
      <rect
         x="72"
         y="76"
         width="20"
         height="20"
         rx="2"
         ry="2"
         id="rect9"
         style="fill:#000000" />
    </g>
    <circle
       cx="82"
       cy="14"
       r="11"
       fill="#cd191e"
       id="circle9"
       style="fill:#000000" />
    <g
       transform="translate(24)"
       id="g17"
       style="fill:#000000">
      <path
         d="m 10.031,130 v -19.988 h 4.2383 V 130 Z"
         id="path9"
         style="fill:#000000" />
      <path
         d="M 37.061,130 H 31.6743 L 22.979,114.879 h -0.12305 q 0.25976,4.0059 0.25976,5.7148 V 130 h -3.7871 v -19.988 h 5.3457 l 8.6816,14.971 h 0.0957 q -0.20508,-3.8965 -0.20508,-5.5098 v -9.4609 h 3.8145 z"
         id="path10"
         style="fill:#000000" />
      <path
         d="m 53.877,124.45 q 0,2.707 -1.9551,4.2656 -1.9414,1.5586 -5.4141,1.5586 -3.1992,0 -5.6602,-1.2031 v -3.9375 q 2.0234,0.90235 3.418,1.2715 1.4082,0.36914 2.5703,0.36914 1.3945,0 2.1328,-0.53321 0.75195,-0.5332 0.75195,-1.5859 0,-0.58789 -0.32812,-1.0391 -0.32812,-0.46484 -0.9707,-0.88867 -0.62891,-0.42383 -2.584,-1.3535 -1.832,-0.86133 -2.748,-1.6543 -0.91602,-0.79297 -1.4629,-1.8457 -0.54688,-1.0527 -0.54688,-2.4609 0,-2.6523 1.791,-4.1699 1.8047,-1.5176 4.9766,-1.5176 1.5586,0 2.9668,0.36914 1.4219,0.36914 2.9668,1.0391 l -1.3672,3.2949 q -1.5996,-0.65625 -2.6523,-0.91601 -1.0391,-0.25977 -2.0508,-0.25977 -1.2031,0 -1.8457,0.56055 -0.6426,0.56055 -0.64258,1.4629 0,0.56055 0.25977,0.98438 0.25976,0.41015 0.82031,0.80664 0.57422,0.38281 2.6934,1.3945 2.8027,1.3398 3.8418,2.6934 1.0391,1.3398 1.0391,3.2949 z"
         id="path11"
         style="fill:#000000" />
      <path
         d="M 65.211,130 H 60.9727 V 113.539 H 55.545 v -3.5273 h 15.094 v 3.5273 h -5.4277 z"
         id="path12"
         style="fill:#000000" />
      <path
         d="m 73.742,130 v -19.988 h 4.2383 V 130 Z"
         id="path13"
         style="fill:#000000" />
      <path
         d="M 90.75,130 H 86.5117 V 113.539 H 81.084 v -3.5273 h 15.094 v 3.5273 h -5.4277 z"
         id="path14"
         style="fill:#000000" />
      <path
         d="m 115.55,110.01 v 12.934 q 0,2.2148 -0.99805,3.8828 -0.98437,1.668 -2.8574,2.5566 -1.873,0.88867 -4.4297,0.88867 -3.8555,0 -5.9883,-1.9688 -2.1328,-1.9824 -2.1328,-5.4141 v -12.879 h 4.2246 v 12.236 q 0,2.3105 0.92969,3.3906 0.92969,1.0801 3.0762,1.0801 2.0781,0 3.0078,-1.0801 0.94336,-1.0938 0.94336,-3.418 v -12.209 z"
         id="path15"
         style="fill:#000000" />
      <path
         d="m 128.16,130 h -4.2383 v -16.461 h -5.4277 v -3.5273 h 15.094 v 3.5273 h -5.4277 z"
         id="path16"
         style="fill:#000000" />
      <path
         d="m 154.83,119.98 q 0,4.9629 -2.4609,7.6289 -2.4609,2.666 -7.0547,2.666 -4.5938,0 -7.0547,-2.666 -2.4609,-2.666 -2.4609,-7.6562 0,-4.9902 2.4609,-7.6152 2.4746,-2.6387 7.082,-2.6387 4.6074,0 7.041,2.6523 2.4473,2.6523 2.4473,7.6289 z m -14.588,0 q 0,3.3496 1.2715,5.0449 1.2715,1.6953 3.8008,1.6953 5.0723,0 5.0723,-6.7402 0,-6.7539 -5.0449,-6.7539 -2.5293,0 -3.8145,1.709 -1.2852,1.6953 -1.2852,5.0449 z"
         id="path17"
         style="fill:#000000" />
    </g>
    <g
       transform="translate(24)"
       id="g24"
       style="fill:#000000">
      <path
         d="m 28.146,154 h -4.1699 v -19.988 h 11.457 v 3.4726 H 28.146 v 5.1543 h 6.7812 v 3.459 H 28.146 Z"
         id="path18"
         style="fill:#000000" />
      <path
         d="M 50.855,154 H 39.343 v -19.988 h 11.512 v 3.4726 h -7.2734 v 4.3887 h 6.7676 v 3.4726 h -6.7676 v 5.1543 h 7.2734 z"
         id="path19"
         style="fill:#000000" />
      <path
         d="m 71.623,143.81 q 0,4.9356 -2.8164,7.5606 -2.8027,2.625 -8.1074,2.625 H 55.039 v -19.988 h 6.2754 q 4.8945,0 7.6016,2.584 2.707,2.584 2.707,7.2188 z m -4.4023,0.10938 q 0,-6.4395 -5.6875,-6.4395 h -2.2559 v 13.016 h 1.8184 q 6.125,0 6.125,-6.5762 z"
         id="path20"
         style="fill:#000000" />
      <path
         d="M 87.277,154 H 75.765 v -19.988 h 11.512 v 3.4726 h -7.2734 v 4.3887 h 6.7676 v 3.4726 h -6.7676 v 5.1543 h 7.2734 z"
         id="path21"
         style="fill:#000000" />
      <path
         d="m 95.699,142.88 h 1.3672 q 2.0098,0 2.9668,-0.66993 0.95703,-0.66992 0.95703,-2.1055 0,-1.4219 -0.98437,-2.0234 -0.9707,-0.60157 -3.0215,-0.60157 h -1.2852 z m 0,3.4453 v 7.6699 h -4.2383 v -19.988 h 5.8242 q 4.0742,0 6.0293,1.4902 1.9551,1.4766 1.9551,4.498 0,1.7637 -0.9707,3.1445 -0.9707,1.3672 -2.748,2.1465 4.5117,6.7402 5.8789,8.709 h -4.7031 l -4.7715,-7.6699 z"
         id="path22"
         style="fill:#000000" />
      <path
         d="m 122.18,154 -1.4492,-4.7578 h -7.2871 L 111.9945,154 h -4.5664 l 7.0547,-20.07 h 5.1816 l 7.082,20.07 z m -2.4609,-8.3125 q -2.0098,-6.4668 -2.2695,-7.3144 -0.24609,-0.84766 -0.35547,-1.3398 -0.45117,1.75 -2.584,8.6543 z"
         id="path23"
         style="fill:#000000" />
      <path
         d="m 129.25,154 v -19.988 h 4.2383 V 150.5 h 8.1074 v 3.5 z"
         id="path24"
         style="fill:#000000" />
    </g>
    <path
       d="m 71.070068,164.39307 v 5.75244 h 2.604493 q 1.4458,0 2.235351,-0.74854 0.789551,-0.74853 0.789551,-2.13281 0,-1.37402 -0.789551,-2.12256 -0.789551,-0.74853 -2.235351,-0.74853 z m -2.071289,-1.70215 h 4.675782 q 2.57373,0 3.88623,1.16894 1.322754,1.15869 1.322754,3.4043 0,2.26611 -1.322754,3.4248 -1.3125,1.1587 -3.88623,1.1587 H 71.070068 V 178 h -2.071289 z m 16.857422,9.53613 q -2.286621,0 -3.168457,0.52295 -0.881836,0.52295 -0.881836,1.78418 0,1.00488 0.65625,1.59961 0.666504,0.58447 1.804688,0.58447 1.568847,0 2.512207,-1.10742 0.953613,-1.11768 0.953613,-2.96338 v -0.42041 z m 3.763184,-0.7793 V 178 h -1.886719 v -1.74316 q -0.645996,1.04589 -1.609863,1.54834 -0.963867,0.49218 -2.358399,0.49218 -1.763672,0 -2.80957,-0.98437 -1.035645,-0.99463 -1.035645,-2.65576 0,-1.93799 1.291993,-2.92237 1.302246,-0.98437 3.875976,-0.98437 h 2.645508 v -0.18457 q 0,-1.30225 -0.861328,-2.00977 -0.851074,-0.71777 -2.399414,-0.71777 -0.984375,0 -1.917481,0.23584 -0.933105,0.23584 -1.794433,0.70752 v -1.74317 q 1.035644,-0.3999 2.009765,-0.59472 0.974121,-0.20508 1.896973,-0.20508 2.491699,0 3.722168,1.29199 1.230469,1.29199 1.230469,3.91699 z M 100.1604,168.2793 q -0.317871,-0.18457 -0.697265,-0.2666 -0.369141,-0.0923 -0.820313,-0.0923 -1.599609,0 -2.460937,1.0459 -0.851074,1.03564 -0.851074,2.98389 V 178 h -1.896973 v -11.48438 h 1.896973 v 1.78418 q 0.594726,-1.04589 1.548339,-1.54834 0.953614,-0.51269 2.317383,-0.51269 0.194824,0 0.430664,0.0308 0.23584,0.0205 0.522953,0.0718 z m 7.19824,3.94775 q -2.28662,0 -3.16845,0.52295 -0.88184,0.52295 -0.88184,1.78418 0,1.00488 0.65625,1.59961 0.6665,0.58447 1.80469,0.58447 1.56884,0 2.5122,-1.10742 0.95362,-1.11768 0.95362,-2.96338 v -0.42041 z m 3.76319,-0.7793 V 178 h -1.88672 v -1.74316 q -0.646,1.04589 -1.60987,1.54834 -0.96386,0.49218 -2.35839,0.49218 -1.76368,0 -2.80957,-0.98437 -1.03565,-0.99463 -1.03565,-2.65576 0,-1.93799 1.29199,-2.92237 1.30225,-0.98437 3.87598,-0.98437 h 2.64551 v -0.18457 q 0,-1.30225 -0.86133,-2.00977 -0.85107,-0.71777 -2.39941,-0.71777 -0.98438,0 -1.91749,0.23584 -0.9331,0.23584 -1.79443,0.70752 v -1.74317 q 1.03565,-0.3999 2.00977,-0.59472 0.97412,-0.20508 1.89697,-0.20508 2.4917,0 3.72217,1.29199 1.23047,1.29199 1.23047,3.91699 z m 6.25488,-10.24365 h 2.04053 l -3.34278,3.85547 h -1.56884 z m -2.36865,5.31152 h 1.88672 V 178 h -1.88672 z m 0.94336,-0.27685 z m 13.13525,6.0293 q 0,-2.08155 -0.86133,-3.26075 -0.85107,-1.18945 -2.34814,-1.18945 -1.49707,0 -2.3584,1.18945 -0.85108,1.1792 -0.85108,3.26075 0,2.08154 0.85108,3.27099 0.86133,1.1792 2.3584,1.1792 1.49707,0 2.34814,-1.1792 0.86133,-1.18945 0.86133,-3.27099 z m -6.41895,-4.00928 q 0.59473,-1.02539 1.49707,-1.51758 0.9126,-0.50244 2.17383,-0.50244 2.0918,0 3.39405,1.66113 1.3125,1.66114 1.3125,4.36817 0,2.70703 -1.3125,4.36816 -1.30225,1.66113 -3.39405,1.66113 -1.26123,0 -2.17383,-0.49218 -0.90234,-0.50245 -1.49707,-1.52784 V 178 h -1.89697 v -15.95508 h 1.89697 z m 16.72413,3.96826 q -2.28663,0 -3.16846,0.52295 -0.88184,0.52295 -0.88184,1.78418 0,1.00488 0.65625,1.59961 0.66651,0.58447 1.80469,0.58447 1.56885,0 2.51221,-1.10742 0.95361,-1.11768 0.95361,-2.96338 v -0.42041 z m 3.76318,-0.7793 V 178 h -1.88672 v -1.74316 q -0.646,1.04589 -1.60986,1.54834 -0.96387,0.49218 -2.3584,0.49218 -1.76367,0 -2.80957,-0.98437 -1.03565,-0.99463 -1.03565,-2.65576 0,-1.93799 1.292,-2.92237 1.30224,-0.98437 3.87597,-0.98437 h 2.64551 v -0.18457 q 0,-1.30225 -0.86133,-2.00977 -0.85107,-0.71777 -2.39941,-0.71777 -0.98438,0 -1.91748,0.23584 -0.93311,0.23584 -1.79444,0.70752 v -1.74317 q 1.03565,-0.3999 2.00977,-0.59472 0.97412,-0.20508 1.89697,-0.20508 2.4917,0 3.72217,1.29199 1.23047,1.29199 1.23047,3.91699 z"
       id="text24"
       style="font-size:21px;line-height:1;font-family:'Open Sans';text-anchor:middle;fill:#000000"
       aria-label="Paraíba" />
  </g>
  <metadata
     id="metadata25">
    <rdf:RDF>
      <cc:Work
         rdf:about="">
        <dc:title>Instituto Federal da Paraíba - Marca Vertical 2015</dc:title>
      </cc:Work>
    </rdf:RDF>
  </metadata>
</svg>
