<svg width="48" height="50" viewBox="0 0 48 50" fill="none" xmlns="http://www.w3.org/2000/svg">
<g clip-path="url(#clip0_800_60)">
<path d="M21.3119 44.7881C16.7314 44.7881 13.0032 40.8154 13.0032 35.9345V6.28918L3.55899 8.59307C1.2247 9.24724 -0.174945 11.8116 0.442544 14.3219L8.54007 46.5378C9.07773 48.6212 10.8744 50.0001 12.802 50.0001C13.1635 50.0001 13.5312 49.952 13.8949 49.8502L33.6008 44.7881H21.3119Z" fill="#B0BEC5"/>
<path d="M47.215 5.72882V35.9345C47.215 39.1008 44.8102 41.6633 41.8387 41.6633H21.3116C19.298 41.6633 17.5386 40.4759 16.6197 38.7259C16.1895 37.9134 15.9353 36.9552 15.9353 35.9345V5.72882C15.9353 2.56212 18.3401 0 21.3116 0H41.8387C44.8102 0 47.215 2.56212 47.215 5.72882Z" fill="#ECEFF1"/>
<path d="M29.6204 14.582C29.6204 16.8832 27.8699 18.7484 25.7103 18.7484C23.5511 18.7484 21.8003 16.8832 21.8003 14.582C21.8003 12.2811 23.5511 10.4159 25.7103 10.4159C27.8699 10.4159 29.6204 12.2811 29.6204 14.582Z" fill="#FFC107"/>
<path d="M47.2151 24.8729V35.9346C47.2151 39.1009 44.8103 41.6634 41.8389 41.6634H21.3117C19.2982 41.6634 17.5388 40.476 16.6199 38.7259L35.9936 18.0817C37.3228 16.6655 39.5124 16.6655 40.8419 18.0817L47.2151 24.8729Z" fill="#388E3C"/>
<path d="M41.4671 41.6634H21.3116C19.298 41.6634 17.5386 40.476 16.6197 38.7259C16.1895 37.9135 15.9353 36.9553 15.9353 35.9346V31.1223L21.3313 25.3729C22.6604 23.9563 24.8501 23.9563 26.1795 25.3729L41.4671 41.6634Z" fill="#4CAF50"/>
</g>
<defs>
<clipPath id="clip0_800_60">
<rect width="46.9231" height="50" fill="white" transform="translate(0.29248)"/>
</clipPath>
</defs>
</svg>
